<?xml version="1.0" encoding="UTF-8"?>
<svg xmlns="http://www.w3.org/2000/svg" xmlns:xlink="http://www.w3.org/1999/xlink" width="24px" height="24px" viewBox="0 0 24 24" version="1.1">
<g id="surface1">
<path style=" stroke:none;fill-rule:nonzero;fill:rgb(0%,0%,0%);fill-opacity:1;" d="M 9.101562 23.691406 L 9.101562 15.710938 L 6.628906 15.710938 L 6.628906 12.042969 L 9.101562 12.042969 L 9.101562 10.464844 C 9.101562 6.378906 10.949219 4.484375 14.960938 4.484375 C 15.359375 4.484375 15.914062 4.527344 16.425781 4.589844 C 16.8125 4.628906 17.191406 4.695312 17.566406 4.785156 L 17.566406 8.109375 C 17.351562 8.089844 17.132812 8.078125 16.914062 8.074219 C 16.671875 8.066406 16.425781 8.0625 16.183594 8.0625 C 15.476562 8.0625 14.921875 8.160156 14.507812 8.371094 C 14.226562 8.511719 13.992188 8.730469 13.828125 8.996094 C 13.570312 9.414062 13.453125 9.988281 13.453125 10.746094 L 13.453125 12.042969 L 17.371094 12.042969 L 16.988281 14.148438 L 16.699219 15.710938 L 13.453125 15.710938 L 13.453125 23.957031 C 19.394531 23.238281 24 18.179688 24 12.042969 C 24 5.417969 18.628906 0.0429688 12 0.0429688 C 5.371094 0.0429688 0 5.417969 0 12.042969 C 0 17.671875 3.875 22.394531 9.101562 23.691406 Z M 9.101562 23.691406 "/>
</g>
</svg>
